# xmcd CD database file
#
# Track frame offsets:
#	150
#	23420
#	51325
#	70316
#	90775
#	113448
#	142017
#	160246
#	174060
#	187070
#
# Disc length: 2844 seconds
#
# Revision: 0
# Processed by: cddbd v1.5.2PL0 Copyright (c) Steve Scherf et al.
# Submitted via: CDex 1.79
#
DISCID=750b1a0a
DTITLE=Ivanhoe - Systematrix
DYEAR=2013
DGENRE=Power Metal
TTITLE0=Systematrix
TTITLE1=Human Letargo
TTITLE2=Tin Cans Liberty
TTITLE3=War Of The Centuries
TTITLE4=Madhouse
TTITLE5=Learning Path
TTITLE6=Walldancer
TTITLE7=The Symbiotic Pretador - Seduction
TTITLE8=The Symbiotic Pretador - Resolution
TTITLE9=The Symbiotic Pretador - Late Recognition
EXTD=YEAR: 2013
EXTT0=
EXTT1=
EXTT2=
EXTT3=
EXTT4=
EXTT5=
EXTT6=
EXTT7=
EXTT8=
EXTT9=
PLAYORDER=
